<svg height="512pt" viewBox="0 -120 512 512" width="512pt" xmlns="http://www.w3.org/2000/svg"><path d="m451.75 195.75c0-24.949219 20.300781-45.25 45.25-45.25 8.285156 0 15-6.714844 15-15s-6.714844-15-15-15c-24.949219 0-45.25-20.300781-45.25-45.25s20.300781-45.25 45.25-45.25c8.285156 0 15-6.714844 15-15s-6.714844-15-15-15c-24.617188 0-46.511719 11.882812-60.25 30.214844-13.738281-18.332032-35.632812-30.214844-60.25-30.214844s-46.511719 11.882812-60.25 30.214844c-13.738281-18.332032-35.632812-30.214844-60.25-30.214844s-46.511719 11.882812-60.25 30.214844c-13.738281-18.332032-35.632812-30.214844-60.25-30.214844s-46.511719 11.882812-60.25 30.214844c-13.738281-18.332032-35.632812-30.214844-60.25-30.214844-8.285156 0-15 6.714844-15 15s6.714844 15 15 15c24.949219 0 45.25 20.300781 45.25 45.25s-20.300781 45.25-45.25 45.25c-8.285156 0-15 6.714844-15 15s6.714844 15 15 15c24.949219 0 45.25 20.300781 45.25 45.25s-20.300781 45.25-45.25 45.25c-8.285156 0-15 6.714844-15 15s6.714844 15 15 15c24.617188 0 46.511719-11.882812 60.25-30.214844 13.738281 18.332032 35.632812 30.214844 60.25 30.214844s46.511719-11.882812 60.25-30.214844c13.738281 18.332032 35.632812 30.214844 60.25 30.214844s46.511719-11.882812 60.25-30.214844c13.738281 18.332032 35.632812 30.214844 60.25 30.214844s46.511719-11.882812 60.25-30.214844c13.738281 18.332032 35.632812 30.214844 60.25 30.214844 8.285156 0 15-6.714844 15-15s-6.714844-15-15-15c-24.949219 0-45.25-20.300781-45.25-45.25zm-75.25 45.25c-24.949219 0-45.25-20.300781-45.25-45.25s20.300781-45.25 45.25-45.25 45.25 20.300781 45.25 45.25-20.300781 45.25-45.25 45.25zm-120.5 0c-24.949219 0-45.25-20.300781-45.25-45.25s20.300781-45.25 45.25-45.25 45.25 20.300781 45.25 45.25-20.300781 45.25-45.25 45.25zm-120.5 0c-24.949219 0-45.25-20.300781-45.25-45.25s20.300781-45.25 45.25-45.25 45.25 20.300781 45.25 45.25-20.300781 45.25-45.25 45.25zm-75.464844-105.5c5.765625-4.320312 10.894532-9.449219 15.214844-15.214844 4.320312 5.765625 9.449219 10.894532 15.214844 15.214844-5.765625 4.320312-10.894532 9.449219-15.214844 15.214844-4.320312-5.765625-9.449219-10.894532-15.214844-15.214844zm75.464844-105.5c24.949219 0 45.25 20.300781 45.25 45.25s-20.300781 45.25-45.25 45.25-45.25-20.300781-45.25-45.25 20.300781-45.25 45.25-45.25zm120.5 0c24.949219 0 45.25 20.300781 45.25 45.25s-20.300781 45.25-45.25 45.25-45.25-20.300781-45.25-45.25 20.300781-45.25 45.25-45.25zm120.5 0c24.949219 0 45.25 20.300781 45.25 45.25s-20.300781 45.25-45.25 45.25-45.25-20.300781-45.25-45.25 20.300781-45.25 45.25-45.25zm75.464844 105.5c-5.765625 4.320312-10.894532 9.449219-15.214844 15.214844-4.320312-5.765625-9.449219-10.894532-15.214844-15.214844 5.765625-4.320312 10.894532-9.449219 15.214844-15.214844 4.320312 5.765625 9.449219 10.894532 15.214844 15.214844zm-135.714844 15.214844c-4.320312-5.765625-9.449219-10.894532-15.214844-15.214844 5.765625-4.320312 10.894532-9.449219 15.214844-15.214844 4.320312 5.765625 9.449219 10.894532 15.214844 15.214844-5.765625 4.320312-10.894532 9.449219-15.214844 15.214844zm-120.5 0c-4.320312-5.765625-9.449219-10.894532-15.214844-15.214844 5.765625-4.320312 10.894532-9.449219 15.214844-15.214844 4.320312 5.765625 9.449219 10.894532 15.214844 15.214844-5.765625 4.320312-10.894532 9.449219-15.214844 15.214844zm0 0"/></svg>