<svg width="32" height="32" viewBox="0 0 32 32" fill="none" xmlns="http://www.w3.org/2000/svg">
<path fill-rule="evenodd" clip-rule="evenodd" d="M31.415 10.586L21.415 0.586035C20.919 0.0900348 20.2 -0.108965 19.519 0.0590348C19.16 0.147035 18.839 0.332035 18.585 0.586035C18.358 0.813035 18.187 1.09403 18.089 1.40803C17.636 2.87703 16.853 4.15403 15.694 5.31203C14.146 6.85903 12.13 8.03104 9.99701 9.27004C7.73301 10.582 5.39401 11.942 3.47701 13.858C1.84801 15.489 0.739014 17.303 0.0890144 19.409C-0.129986 20.12 0.0610144 20.889 0.585014 21.415L10.585 31.415C11.081 31.911 11.8 32.11 12.481 31.942C12.84 31.852 13.161 31.669 13.415 31.415C13.642 31.188 13.813 30.907 13.911 30.591C14.365 29.122 15.148 27.845 16.308 26.687C17.855 25.14 19.87 23.97 22.005 22.732C24.267 21.418 26.607 20.058 28.523 18.142C30.152 16.513 31.261 14.697 31.912 12.591C32.13 11.881 31.938 11.109 31.415 10.586ZM12 30C8.68801 26.688 5.31201 23.311 2.00001 20C4.84201 10.799 17.16 11.201 20 2.00003C23.312 5.31103 26.689 8.68804 30.002 12C27.159 21.199 14.841 20.799 12 30Z" fill="url(#paint0_linear)"/>
<path fill-rule="evenodd" clip-rule="evenodd" d="M19.562 14.9C19.236 14.627 18.908 14.441 18.578 14.349C18.25 14.257 17.922 14.22 17.59 14.244C17.262 14.269 16.926 14.344 16.59 14.473C16.254 14.604 15.916 14.746 15.576 14.911C15.039 14.294 14.502 13.684 13.965 13.118C14.207 12.899 14.442 12.788 14.668 12.78C14.895 12.77 15.113 12.794 15.32 12.846C15.531 12.899 15.724 12.944 15.902 12.979C16.082 13.014 16.238 12.975 16.375 12.86C16.52 12.735 16.6 12.573 16.611 12.378C16.621 12.181 16.547 11.989 16.382 11.802C16.171 11.56 15.917 11.413 15.612 11.359C15.311 11.306 15.003 11.31 14.682 11.38C14.366 11.452 14.065 11.571 13.78 11.739C13.495 11.907 13.266 12.079 13.096 12.247C13.031 12.185 12.966 12.124 12.901 12.063C12.829 11.997 12.739 11.961 12.631 11.963C12.522 11.963 12.432 12.01 12.358 12.096C12.286 12.18 12.253 12.278 12.266 12.381C12.276 12.488 12.319 12.57 12.393 12.633C12.458 12.688 12.523 12.742 12.588 12.799C12.332 13.108 12.121 13.449 11.955 13.809C11.787 14.17 11.687 14.528 11.65 14.875C11.611 15.225 11.648 15.545 11.755 15.842C11.862 16.141 12.06 16.395 12.349 16.635C12.82 17.026 13.374 17.192 14.017 17.155C14.658 17.116 15.349 16.925 16.092 16.526C16.682 17.208 17.274 17.885 17.865 18.514C17.615 18.725 17.396 18.846 17.203 18.885C17.01 18.926 16.838 18.922 16.682 18.875C16.526 18.826 16.381 18.756 16.248 18.666C16.115 18.574 15.984 18.496 15.853 18.432C15.724 18.368 15.591 18.332 15.455 18.33C15.319 18.328 15.174 18.394 15.014 18.531C14.85 18.674 14.768 18.84 14.768 19.027C14.768 19.213 14.854 19.402 15.022 19.593C15.192 19.784 15.413 19.945 15.68 20.072C15.947 20.199 16.249 20.279 16.581 20.301C16.913 20.324 17.263 20.274 17.632 20.137C18.003 20.002 18.37 19.758 18.732 19.395C18.906 19.565 19.082 19.727 19.257 19.883C19.331 19.947 19.421 19.979 19.53 19.971C19.635 19.967 19.727 19.918 19.8 19.83C19.874 19.74 19.905 19.641 19.894 19.537C19.884 19.432 19.841 19.351 19.769 19.293C19.593 19.152 19.417 19.004 19.242 18.848C19.541 18.481 19.781 18.094 19.959 17.711C20.137 17.326 20.242 16.955 20.277 16.611C20.312 16.265 20.271 15.953 20.158 15.67C20.046 15.383 19.847 15.137 19.562 14.9ZM13.971 15.578C13.688 15.59 13.441 15.496 13.225 15.287C13.133 15.199 13.069 15.092 13.03 14.965C12.989 14.838 12.975 14.699 12.991 14.547C13.005 14.397 13.05 14.24 13.128 14.082C13.202 13.924 13.312 13.766 13.452 13.613C13.959 14.117 14.465 14.67 14.972 15.242C14.588 15.453 14.254 15.566 13.971 15.578ZM18.688 17.58C18.598 17.746 18.495 17.894 18.374 18.023C17.813 17.457 17.253 16.835 16.694 16.197C16.837 16.133 16.987 16.066 17.149 15.998C17.311 15.93 17.473 15.885 17.635 15.857C17.801 15.832 17.965 15.839 18.129 15.878C18.291 15.919 18.445 16.007 18.588 16.146C18.729 16.287 18.818 16.433 18.854 16.591C18.893 16.751 18.895 16.913 18.868 17.079C18.839 17.246 18.78 17.412 18.688 17.58Z" fill="url(#paint1_linear)"/>
<path fill-rule="evenodd" clip-rule="evenodd" d="M14.717 22.18H14.715C14.09 22.66 13.48 23.166 12.915 23.733C12.372 24.276 11.881 24.848 11.454 25.432L10.77 26.366L10.772 26.368C10.647 26.563 10.668 26.825 10.838 26.995C11.033 27.19 11.352 27.19 11.548 26.995C11.578 26.964 11.602 26.931 11.622 26.895L12.261 26.02C12.657 25.479 13.115 24.946 13.622 24.44C14.183 23.879 14.703 23.446 15.336 22.965L15.334 22.963C15.352 22.949 15.369 22.938 15.385 22.922C15.581 22.727 15.581 22.408 15.385 22.213C15.204 22.029 14.914 22.021 14.717 22.18Z" fill="url(#paint2_linear)"/>
<path fill-rule="evenodd" clip-rule="evenodd" d="M18.3781 7.71504C17.8551 8.23804 17.2881 8.70904 16.7001 9.15804C16.6591 9.18104 16.6181 9.20704 16.5831 9.24404C16.3861 9.44104 16.3861 9.76203 16.5831 9.95903C16.7741 10.152 17.0831 10.156 17.2821 9.97303L17.2861 9.97504C17.9111 9.49504 18.5201 8.98704 19.0851 8.42204C19.6281 7.87904 20.1181 7.30904 20.5461 6.72504L21.2301 5.78704L21.2281 5.78504C21.3981 5.58604 21.3901 5.28904 21.2031 5.10104C21.0061 4.90404 20.6871 4.90404 20.4901 5.10104C20.4531 5.13804 20.4261 5.18104 20.4021 5.22404L19.7381 6.13404C19.3411 6.67804 18.8841 7.20904 18.3781 7.71504Z" fill="url(#paint3_linear)"/>
<defs>
<linearGradient id="paint0_linear" x1="-0.000244141" y1="0.000488281" x2="31.9998" y2="32.0012" gradientUnits="userSpaceOnUse">
<stop stop-color="#FF376E"/>
<stop offset="1" stop-color="#FF4A37"/>
</linearGradient>
<linearGradient id="paint1_linear" x1="11.6349" y1="11.3229" x2="20.6121" y2="19.9712" gradientUnits="userSpaceOnUse">
<stop stop-color="#FF376E"/>
<stop offset="1" stop-color="#FF4A37"/>
</linearGradient>
<linearGradient id="paint2_linear" x1="10.692" y1="22.0674" x2="15.7602" y2="26.9021" gradientUnits="userSpaceOnUse">
<stop stop-color="#FF376E"/>
<stop offset="1" stop-color="#FF4A37"/>
</linearGradient>
<linearGradient id="paint3_linear" x1="16.4353" y1="4.95329" x2="21.5833" y2="9.86214" gradientUnits="userSpaceOnUse">
<stop stop-color="#FF376E"/>
<stop offset="1" stop-color="#FF4A37"/>
</linearGradient>
</defs>
</svg>
