<svg width="28" height="32" viewBox="0 0 28 32" fill="none" xmlns="http://www.w3.org/2000/svg">
<path d="M14 0C7.256 0 0 2.033 0 6.5V25.5C0 29.965 7.256 32 14 32C20.743 32 28 29.965 28 25.5V6.5C28 2.033 20.742 0 14 0ZM26 25.5C26 27.984 20.627 30 14 30C7.372 30 2 27.984 2 25.5V21.764C4.066 23.893 9.05 25 14 25C18.95 25 23.934 23.893 26 21.764V25.5ZM26 19.5H25.996C25.996 19.51 26 19.521 26 19.531C26 22 20.627 24 14 24C7.373 24 2 22 2 19.531C2 19.521 2.004 19.51 2.004 19.5H2V15.764C4.066 17.893 9.05 19 14 19C18.95 19 23.934 17.893 26 15.764V19.5ZM26 13.5H25.996C25.996 13.51 26 13.521 26 13.531C26 16 20.627 18 14 18C7.373 18 2 16 2 13.531C2 13.521 2.004 13.51 2.004 13.5H2V10.064C4.621 12.061 9.425 13 14 13C18.575 13 23.379 12.061 26 10.064V13.5ZM14 11C7.372 11 2 8.984 2 6.5C2 4.014 7.372 2 14 2C20.627 2 26 4.014 26 6.5C26 8.984 20.627 11 14 11Z" fill="url(#paint0_linear)"/>
<path d="M23 27C23.5523 27 24 26.5523 24 26C24 25.4477 23.5523 25 23 25C22.4477 25 22 25.4477 22 26C22 26.5523 22.4477 27 23 27Z" fill="url(#paint1_linear)"/>
<path d="M23 21C23.5523 21 24 20.5523 24 20C24 19.4477 23.5523 19 23 19C22.4477 19 22 19.4477 22 20C22 20.5523 22.4477 21 23 21Z" fill="url(#paint2_linear)"/>
<path d="M23 15C23.5523 15 24 14.5523 24 14C24 13.4477 23.5523 13 23 13C22.4477 13 22 13.4477 22 14C22 14.5523 22.4477 15 23 15Z" fill="url(#paint3_linear)"/>
<defs>
<linearGradient id="paint0_linear" x1="0" y1="0" x2="31.7168" y2="27.7522" gradientUnits="userSpaceOnUse">
<stop stop-color="#FF376E"/>
<stop offset="1" stop-color="#FF4A37"/>
</linearGradient>
<linearGradient id="paint1_linear" x1="22" y1="25" x2="24" y2="27" gradientUnits="userSpaceOnUse">
<stop stop-color="#FF376E"/>
<stop offset="1" stop-color="#FF4A37"/>
</linearGradient>
<linearGradient id="paint2_linear" x1="22" y1="19" x2="24" y2="21" gradientUnits="userSpaceOnUse">
<stop stop-color="#FF376E"/>
<stop offset="1" stop-color="#FF4A37"/>
</linearGradient>
<linearGradient id="paint3_linear" x1="22" y1="13" x2="24" y2="15" gradientUnits="userSpaceOnUse">
<stop stop-color="#FF376E"/>
<stop offset="1" stop-color="#FF4A37"/>
</linearGradient>
</defs>
</svg>
