<svg width="32" height="28" viewBox="0 0 32 28" fill="none" xmlns="http://www.w3.org/2000/svg">
<path fill-rule="evenodd" clip-rule="evenodd" d="M29.1888 2.76289C25.5598 -0.833105 19.7568 -0.908105 15.9978 2.4749C12.2378 -0.908105 6.43675 -0.833105 2.80575 2.76289C-0.93525 6.46689 -0.93525 12.4719 2.80575 16.1779C3.87475 17.2369 13.8588 27.1189 13.8588 27.1189C15.0418 28.2909 16.9548 28.2909 18.1368 27.1189C18.1368 27.1189 29.0688 16.2969 29.1898 16.1779C32.9318 12.4719 32.9318 6.46689 29.1888 2.76289ZM27.7638 14.7659L16.7108 25.7069C16.3178 26.0979 15.6768 26.0979 15.2858 25.7069L4.23275 14.7659C1.28275 11.8459 1.28275 7.0949 4.23275 4.1749C7.07675 1.3599 11.6488 1.2609 14.6418 3.95289L15.9978 5.1729L17.3528 3.95289C20.3468 1.2609 24.9188 1.3589 27.7628 4.1749C30.7128 7.0939 30.7127 11.8449 27.7638 14.7659Z" fill="url(#paint0_linear)"/>
<path fill-rule="evenodd" clip-rule="evenodd" d="M9.24878 4.99889C9.24678 4.99889 9.24678 4.99989 9.24478 4.99989C6.89978 5.00189 4.99878 6.90289 4.99878 9.24889C4.99878 9.52489 5.22278 9.74889 5.49878 9.74889C5.77478 9.74889 5.99878 9.52489 5.99878 9.24889V9.24789C5.99878 7.45389 7.45378 5.99889 9.24778 5.99889H9.24878C9.52478 5.99889 9.74878 5.77489 9.74878 5.49889C9.74878 5.22289 9.52578 4.99889 9.24878 4.99889Z" fill="url(#paint1_linear)"/>
<defs>
<linearGradient id="paint0_linear" x1="0" y1="0" x2="27.7503" y2="31.7132" gradientUnits="userSpaceOnUse">
<stop stop-color="#FF376E"/>
<stop offset="1" stop-color="#FF4A37"/>
</linearGradient>
<linearGradient id="paint1_linear" x1="4.99878" y1="4.99889" x2="9.74878" y2="9.74889" gradientUnits="userSpaceOnUse">
<stop stop-color="#FF376E"/>
<stop offset="1" stop-color="#FF4A37"/>
</linearGradient>
</defs>
</svg>
