<svg width="32" height="22" viewBox="0 0 32 22" fill="none" xmlns="http://www.w3.org/2000/svg">
<path d="M28 1H4C1.791 1 0 2.792 0 5V18C0 20.209 1.791 22 4 22H28C30.209 22 32 20.209 32 18V5C32 2.792 30.209 1 28 1ZM2 6.25L8.999 11.5L2 16.75V6.25ZM30 18C30 19.104 29.102 20 28 20H4C2.897 20 2 19.104 2 18L9.832 12.125L14.2 15.402C14.733 15.8 15.366 16.002 16 16.002C16.633 16.002 17.266 15.801 17.799 15.402L22.168 12.125L30 18ZM30 16.75L23 11.5L30 6.25V16.75ZM17.199 14.602C16.85 14.864 16.436 15.002 16 15.002C15.564 15.002 15.149 14.863 14.8 14.602L10.665 11.5L9.832 10.875L2 5.001V5C2 3.897 2.897 3 4 3H28C29.102 3 30 3.897 30 5L17.199 14.602Z" fill="#FAFAFA"/>
</svg>
