<svg width="32" height="30" viewBox="0 0 32 30" fill="none" xmlns="http://www.w3.org/2000/svg">
<path d="M27 3.996L5 4C4.447 4 4 4.443 4 4.996V18.996C4 19.549 4.447 19.996 5 19.996H27C27.553 19.996 28 19.549 28 18.996V4.996C28 4.443 27.553 3.996 27 3.996ZM27 19H5V4.996H27V19Z" fill="#FAFAFA"/>
<path d="M29 0H3C1.343 0 0 1.342 0 3V23C0 24.654 1.338 25.994 2.99 25.998H13V27.215L6.758 28.026C6.312 28.137 6 28.537 6 28.996C6 29.549 6.447 29.996 7 29.996H25C25.553 29.996 26 29.549 26 28.996C26 28.537 25.688 28.137 25.242 28.025L19 27.215V25.998H29.01C30.662 25.994 32 24.654 32 23V3C32 1.342 30.656 0 29 0ZM30 23C30 23.551 29.551 24 29 24H20H12H3C2.448 24 2 23.551 2 23V3C2 2.448 2.448 2 3 2H29C29.551 2 30 2.448 30 3V23Z" fill="#FAFAFA"/>
</svg>
