<svg width="32" height="32" viewBox="0 0 32 32" fill="none" xmlns="http://www.w3.org/2000/svg">
<path fill-rule="evenodd" clip-rule="evenodd" d="M8 6.021V3C8 1.346 6.654 0 5 0C3.346 0 2 1.346 2 3V6.021C0.792 6.936 0 8.369 0 10C0 11.631 0.792 13.064 2 13.977V29C2 30.654 3.346 32 5 32C6.654 32 8 30.654 8 29V13.977C9.208 13.065 10 11.631 10 10C10 8.369 9.208 6.936 8 6.021ZM4 3C4 2.447 4.447 2 5 2C5.553 2 6 2.447 6 3V5.1C5.677 5.035 5.343 5 5 5C4.657 5 4.323 5.035 4 5.1V3ZM6 29C6 29.553 5.553 30 5 30C4.447 30 4 29.553 4 29V14.898C4.323 14.965 4.657 15 5 15C5.343 15 5.677 14.965 6 14.898V29ZM7.865 10.84C7.849 10.893 7.835 10.945 7.816 10.998C7.721 11.262 7.599 11.512 7.438 11.734C7.434 11.74 7.428 11.744 7.424 11.75C7.25 11.988 7.043 12.199 6.808 12.377C6.804 12.381 6.801 12.383 6.798 12.385C6.557 12.567 6.288 12.713 5.999 12.815C5.686 12.928 5.353 13 5 13C4.647 13 4.314 12.928 4 12.814C3.711 12.712 3.442 12.566 3.201 12.384C3.198 12.382 3.195 12.38 3.191 12.376C2.956 12.198 2.749 11.987 2.575 11.749C2.571 11.743 2.565 11.739 2.561 11.733C2.4 11.51 2.278 11.26 2.183 10.997C2.164 10.944 2.15 10.892 2.134 10.839C2.055 10.572 2 10.293 2 10C2 9.705 2.055 9.426 2.135 9.158C2.151 9.105 2.165 9.053 2.184 9.002C2.278 8.738 2.4 8.488 2.562 8.264C2.566 8.258 2.572 8.254 2.576 8.248C2.75 8.012 2.957 7.799 3.192 7.621C3.196 7.619 3.199 7.615 3.202 7.613C3.442 7.434 3.711 7.287 4 7.184C4.314 7.072 4.647 7 5 7C5.353 7 5.686 7.072 6 7.184C6.289 7.288 6.558 7.434 6.799 7.614C6.802 7.616 6.805 7.62 6.809 7.622C7.044 7.8 7.251 8.013 7.425 8.249C7.429 8.255 7.435 8.259 7.439 8.265C7.6 8.488 7.722 8.738 7.816 9.002C7.835 9.053 7.85 9.105 7.865 9.158C7.945 9.426 8 9.705 8 10C8 10.293 7.945 10.572 7.865 10.84Z" fill="url(#paint0_linear)"/>
<path fill-rule="evenodd" clip-rule="evenodd" d="M30 6.021V3C30 1.346 28.654 0 27 0C25.346 0 24 1.346 24 3V6.021C22.791 6.936 22 8.369 22 10C22 11.631 22.791 13.064 24 13.977V29C24 30.654 25.346 32 27 32C28.654 32 30 30.654 30 29V13.977C31.207 13.065 32 11.631 32 10C32 8.369 31.207 6.936 30 6.021ZM26 3C26 2.447 26.447 2 27 2C27.553 2 28 2.447 28 3V5.1C27.676 5.035 27.342 5 27 5C26.656 5 26.322 5.035 26 5.1V3ZM28 29C28 29.553 27.553 30 27 30C26.447 30 26 29.553 26 29V14.898C26.322 14.965 26.656 15 27 15C27.342 15 27.676 14.965 28 14.898V29ZM29.865 10.84C29.849 10.893 29.834 10.945 29.816 10.998C29.72 11.262 29.599 11.512 29.437 11.734C29.433 11.74 29.427 11.744 29.423 11.75C29.249 11.988 29.042 12.199 28.808 12.377C28.804 12.381 28.8 12.383 28.798 12.385C28.556 12.567 28.288 12.713 27.999 12.815C27.686 12.928 27.352 13 27 13C26.646 13 26.314 12.928 26 12.814C25.711 12.712 25.441 12.566 25.201 12.384C25.197 12.382 25.195 12.38 25.191 12.376C24.955 12.198 24.748 11.987 24.574 11.749C24.57 11.743 24.564 11.739 24.56 11.733C24.4 11.51 24.277 11.26 24.183 10.997C24.163 10.944 24.15 10.892 24.134 10.839C24.055 10.572 24 10.293 24 10C24 9.705 24.055 9.426 24.135 9.158C24.151 9.105 24.164 9.053 24.184 9.002C24.278 8.738 24.401 8.488 24.561 8.264C24.565 8.258 24.571 8.254 24.575 8.248C24.749 8.012 24.956 7.799 25.192 7.621C25.196 7.619 25.198 7.615 25.202 7.613C25.442 7.433 25.712 7.287 26.001 7.183C26.314 7.072 26.646 7 27 7C27.352 7 27.686 7.072 28 7.184C28.289 7.288 28.557 7.434 28.799 7.614C28.801 7.616 28.805 7.62 28.809 7.622C29.043 7.8 29.25 8.013 29.424 8.249C29.428 8.255 29.434 8.259 29.438 8.265C29.6 8.49 29.721 8.74 29.817 9.003C29.835 9.054 29.85 9.107 29.866 9.159C29.945 9.426 30 9.705 30 10C30 10.293 29.945 10.572 29.865 10.84Z" fill="url(#paint1_linear)"/>
<path fill-rule="evenodd" clip-rule="evenodd" d="M19 18.021V3C19 1.346 17.654 0 16 0C14.346 0 13 1.346 13 3V18.021C11.792 18.935 11 20.369 11 22C11 23.631 11.792 25.064 13 25.977V29C13 30.654 14.346 32 16 32C17.654 32 19 30.654 19 29V25.977C20.207 25.065 21 23.631 21 22C21 20.369 20.207 18.936 19 18.021ZM15 3C15 2.447 15.447 2 16 2C16.553 2 17 2.447 17 3V17.1C16.676 17.036 16.342 17 16 17C15.657 17 15.323 17.035 15 17.1V3ZM17 29C17 29.553 16.553 30 16 30C15.447 30 15 29.553 15 29V26.898C15.323 26.965 15.657 27 16 27C16.342 27 16.676 26.965 17 26.898V29ZM18.865 22.84C18.849 22.893 18.834 22.945 18.816 22.998C18.72 23.262 18.599 23.512 18.437 23.734C18.433 23.74 18.427 23.744 18.423 23.75C18.249 23.988 18.042 24.199 17.808 24.377C17.804 24.381 17.8 24.383 17.798 24.385C17.556 24.567 17.288 24.713 16.999 24.815C16.686 24.928 16.352 25 16 25C15.647 25 15.314 24.928 15 24.814C14.711 24.712 14.442 24.566 14.201 24.384C14.198 24.382 14.195 24.38 14.191 24.376C13.956 24.198 13.749 23.987 13.575 23.749C13.571 23.743 13.565 23.739 13.561 23.733C13.4 23.51 13.278 23.26 13.183 22.997C13.164 22.944 13.15 22.892 13.134 22.839C13.055 22.572 13 22.293 13 22C13 21.705 13.055 21.426 13.135 21.158C13.151 21.105 13.165 21.053 13.184 21.002C13.279 20.738 13.401 20.488 13.562 20.264C13.566 20.258 13.572 20.254 13.576 20.248C13.75 20.012 13.957 19.799 14.192 19.621C14.196 19.619 14.199 19.615 14.202 19.613C14.443 19.433 14.712 19.287 15.001 19.183C15.314 19.072 15.647 19 16 19C16.352 19 16.686 19.072 17 19.184C17.289 19.288 17.557 19.434 17.799 19.614C17.801 19.616 17.805 19.62 17.809 19.622C18.043 19.8 18.25 20.013 18.424 20.249C18.428 20.255 18.434 20.259 18.438 20.265C18.6 20.49 18.721 20.74 18.817 21.003C18.835 21.054 18.85 21.107 18.866 21.159C18.945 21.426 19 21.705 19 22C19 22.293 18.945 22.572 18.865 22.84Z" fill="url(#paint2_linear)"/>
<defs>
<linearGradient id="paint0_linear" x1="0" y1="0" x2="18.2206" y2="5.69395" gradientUnits="userSpaceOnUse">
<stop stop-color="#FF376E"/>
<stop offset="1" stop-color="#FF4A37"/>
</linearGradient>
<linearGradient id="paint1_linear" x1="22" y1="0" x2="40.2206" y2="5.69395" gradientUnits="userSpaceOnUse">
<stop stop-color="#FF376E"/>
<stop offset="1" stop-color="#FF4A37"/>
</linearGradient>
<linearGradient id="paint2_linear" x1="11" y1="0" x2="29.2206" y2="5.69395" gradientUnits="userSpaceOnUse">
<stop stop-color="#FF376E"/>
<stop offset="1" stop-color="#FF4A37"/>
</linearGradient>
</defs>
</svg>
