<svg width="32" height="32" viewBox="0 0 32 32" fill="none" xmlns="http://www.w3.org/2000/svg">
<path d="M31.4 11.2L28.4 7.202C28.283 7.045 28.144 6.909 28 6.779V2C28 0.896 27.104 0 26 0H6C4.895 0 4 0.896 4 2V6.78C3.856 6.909 3.717 7.044 3.6 7.2L0.601 11.199C0.213 11.715 0 12.354 0 13V14C0 15.654 1.346 17 3 17V30C3 31.104 3.896 32 5 32H27C28.104 32 29 31.104 29 30V17C30.654 17 32 15.654 32 14V13C32 12.354 31.787 11.715 31.4 11.2ZM26 2V6H6V2H26ZM10.193 15H6.004L10.004 8H12.193L10.193 15ZM13.234 8H15.5V15H11.234L13.234 8ZM16.5 8H18.766L20.766 15H16.5V8ZM19.805 8H21.994L25.994 15H21.805L19.805 8ZM2 14V13C2 12.783 2.07 12.573 2.2 12.4L5.2 8.4C5.389 8.148 5.685 8 6 8H8.852L4.852 15H3C2.448 15 2 14.553 2 14ZM20 30H12.5V20H20V30ZM27 30H21V20C21 19.447 20.551 19 20 19H12.5C11.948 19 11.5 19.447 11.5 20V30H5V17H27V30ZM30 14C30 14.553 29.553 15 29 15H27.146L23.146 8H26C26.314 8 26.611 8.148 26.799 8.4L29.799 12.4C29.93 12.573 30 12.783 30 13V14Z" fill="#FAFAFA"/>
</svg>
