<svg width="32" height="31" viewBox="0 0 32 31" fill="none" xmlns="http://www.w3.org/2000/svg">
<path d="M31.881 11.557C31.604 10.758 30.893 10.173 30.037 10.046L21.711 8.808L18.092 1.294C17.711 0.505 16.896 0 16 0C15.104 0 14.289 0.505 13.908 1.294L10.289 8.808L1.96201 10.046C1.10701 10.173 0.396007 10.758 0.120007 11.557C-0.154993 12.358 0.053007 13.24 0.657007 13.842L6.75901 19.934L5.34401 28.385C5.20001 29.236 5.56901 30.09 6.29201 30.588C6.68901 30.861 7.15601 31 7.62301 31C8.00701 31 8.39201 30.906 8.74101 30.719L16 26.811L23.26 30.719C23.609 30.906 23.994 31 24.377 31C24.844 31 25.311 30.861 25.709 30.588C26.432 30.09 26.799 29.236 26.656 28.385L25.24 19.934L31.344 13.842C31.947 13.239 32.154 12.357 31.881 11.557ZM23.588 18.363C23.076 18.873 22.844 19.592 22.961 20.297L24.377 28.748L17.117 24.842C16.769 24.654 16.385 24.561 15.999 24.561C15.615 24.561 15.23 24.655 14.882 24.842L7.62201 28.748L9.03801 20.297C9.15601 19.592 8.92401 18.873 8.41201 18.363L2.31001 12.271L10.636 11.031C11.397 10.918 12.052 10.442 12.379 9.763L16 2.251L19.62 9.764C19.948 10.443 20.602 10.918 21.362 11.032L29.69 12.272L23.588 18.363Z" fill="url(#paint0_linear)"/>
<defs>
<linearGradient id="paint0_linear" x1="0.000488281" y1="0" x2="30.9849" y2="31.9829" gradientUnits="userSpaceOnUse">
<stop stop-color="#FF376E"/>
<stop offset="1" stop-color="#FF4A37"/>
</linearGradient>
</defs>
</svg>
