<svg width="32" height="26" viewBox="0 0 32 26" fill="none" xmlns="http://www.w3.org/2000/svg">
<path d="M24.832 8.445C24.646 8.167 24.334 8 24 8H23C22.447 8 22 8.447 22 9V15C22 15.553 22.447 16 23 16H27C27.553 16 28 15.553 28 15V13.5C28 13.303 27.941 13.109 27.832 12.945L24.832 8.445ZM27 15H23V9H24L27 13.5V15Z" fill="#FAFAFA"/>
<path d="M31.496 12.336L27.496 6.336C26.938 5.499 26.004 5 25 5H21V3C21 1.346 19.654 0 18 0H3C1.346 0 0 1.346 0 3V14C0 15.654 1.346 17 3 17V20C3 21.654 4.346 23 6 23H7.142C7.589 24.721 9.142 26 11.001 26C12.858 26 14.411 24.721 14.858 23H20.14C20.587 24.721 22.14 26 23.999 26C25.856 26 27.409 24.721 27.856 23H29C30.654 23 32 21.654 32 20V14C32 13.406 31.826 12.83 31.496 12.336ZM3 15C2.448 15 2 14.553 2 14V3C2 2.447 2.448 2 3 2H18C18.553 2 19 2.447 19 3V5V7V14C19 14.553 18.553 15 18 15H3ZM11.001 24C9.896 24 9.001 23.104 9.001 22C9.001 20.896 9.896 20 11.001 20C12.105 20 13.001 20.896 13.001 22C13.001 23.104 12.104 24 11.001 24ZM24 24C22.895 24 22 23.104 22 22C22 20.896 22.895 20 24 20C25.104 20 26 20.896 26 22C26 23.104 25.104 24 24 24ZM30 20C30 20.553 29.553 21 29 21H27.857C27.41 19.279 25.857 18 24 18C22.141 18 20.588 19.279 20.141 21H14.859C14.412 19.279 12.859 18 11.002 18C9.143 18 7.59 19.279 7.143 21H6C5.448 21 5 20.553 5 20V17H18C19.654 17 21 15.654 21 14V7H25C25.334 7 25.646 7.167 25.832 7.445L29.832 13.445C29.941 13.609 30 13.803 30 14V20Z" fill="#FAFAFA"/>
</svg>
