<svg width="32" height="25" viewBox="0 0 32 25" fill="none" xmlns="http://www.w3.org/2000/svg">
<path d="M22.1588 4.624C19.4518 4.067 16.7038 3.785 13.9938 3.785C11.2838 3.785 8.53679 4.067 5.82879 4.624C5.47879 4.696 5.19279 4.95 5.07979 5.291C3.63779 9.672 3.63779 14.114 5.07979 18.495C5.19179 18.835 5.47779 19.089 5.82879 19.161C8.53679 19.717 11.2838 20 13.9938 20C16.7028 20 19.4518 19.717 22.1588 19.16C22.5108 19.088 22.7958 18.834 22.9088 18.494C24.3498 14.113 24.3498 9.671 22.9088 5.29C22.7958 4.95 22.5098 4.696 22.1588 4.624ZM21.9578 18.182C16.6488 19.272 11.3388 19.272 6.03079 18.182C4.64979 13.989 4.64979 9.797 6.03079 5.603C11.3398 4.512 16.6498 4.512 21.9578 5.603C23.3388 9.796 23.3388 13.988 21.9578 18.182Z" fill="#FAFAFA"/>
<path d="M30.8428 2.32C30.6497 1.506 29.9678 0.898 29.1378 0.798C24.7778 0.268 20.3557 0 15.9937 0C11.6327 0 7.21075 0.268 2.85075 0.797C2.02075 0.898 1.33975 1.505 1.14675 2.32C-0.38225 8.743 -0.38225 15.256 1.14675 21.68C1.33975 22.494 2.02075 23.102 2.85075 23.201C4.95175 23.457 7.06675 23.644 9.18175 23.777C9.06775 23.85 8.99375 23.924 8.99375 24C8.99375 24.553 12.1277 25 15.9937 25C19.8597 25 22.9937 24.553 22.9937 24C22.9937 23.924 22.9198 23.85 22.8057 23.777C24.9207 23.644 27.0357 23.457 29.1357 23.201C29.9657 23.101 30.6477 22.494 30.8407 21.68C32.3717 15.256 32.3717 8.743 30.8428 2.32ZM28.8968 21.217C20.2948 22.26 11.6927 22.26 3.09175 21.217C1.62875 15.072 1.62875 8.927 3.09175 2.783C11.6938 1.739 20.2958 1.739 28.8968 2.783C30.3598 8.927 30.3598 15.072 28.8968 21.217Z" fill="#FAFAFA"/>
<path d="M26.4948 8C27.3228 8 27.9948 7.328 27.9948 6.5C27.9948 5.672 27.3228 5 26.4948 5C25.6668 5 24.9948 5.672 24.9948 6.5C24.9948 7.328 25.6668 8 26.4948 8ZM26.4948 6C26.7698 6 26.9948 6.225 26.9948 6.5C26.9948 6.775 26.7698 7 26.4948 7C26.2198 7 25.9948 6.775 25.9948 6.5C25.9948 6.225 26.2188 6 26.4948 6Z" fill="#FAFAFA"/>
<path d="M27.4948 18H24.4948C24.2178 18 23.9948 18.223 23.9948 18.5C23.9948 18.775 24.2178 19 24.4948 19H27.4948C27.7698 19 27.9948 18.775 27.9948 18.5C27.9948 18.223 27.7698 18 27.4948 18Z" fill="#FAFAFA"/>
<path d="M28.4948 15H25.4948C25.2178 15 24.9948 15.223 24.9948 15.5C24.9948 15.775 25.2178 16 25.4948 16H28.4948C28.7698 16 28.9948 15.775 28.9948 15.5C28.9948 15.223 28.7698 15 28.4948 15Z" fill="#FAFAFA"/>
<path d="M28.4948 12H25.4948C25.2178 12 24.9948 12.224 24.9948 12.5C24.9948 12.776 25.2178 13 25.4948 13H28.4948C28.7698 13 28.9948 12.776 28.9948 12.5C28.9948 12.224 28.7698 12 28.4948 12Z" fill="#FAFAFA"/>
<path d="M13.4937 7.80399L8.90775 8.16299C8.63475 8.19399 8.37375 8.44199 8.32775 8.71399L8.02275 11.5C8.00875 11.775 8.22175 12 8.49575 12C8.76875 12 9.00275 11.775 9.01375 11.5L9.18075 9.60499C9.21775 9.33299 9.47175 9.08699 9.74475 9.05899L13.4937 8.80199C13.7687 8.79199 13.9937 8.55999 13.9937 8.28399C13.9937 8.00799 13.7697 7.79299 13.4937 7.80399Z" fill="#FAFAFA"/>
</svg>
